# xmcd
#
# Track frame offsets:
#	150
#	13205
#	24577
#	43452
#	58315
#	68672
#	81100
#	95502
#	105405
#	115995
#	126877
#	139532
#	151992
#	164570
#	174585
#	189735
#	201882
#	215655
#	232957
#	243702
#
# Disc length: 3400
#
# Revision: 2
# Processed by: cddbd v1.5.1PL0 Copyright (c) Steve Scherf et al.
# Submitted via: CDex 1.40Release
# Normalized: r0:TDELIM( - ),TSWAP
#
DISCID=250d4614
DTITLE=Various Artist - The Classic Songs
DYEAR=1900
DGENRE=Country
TTITLE0=Charlie Rich - The most beautiful girl
TTITLE1=Don Gibson - Sea of heartbreak
TTITLE2=Wink Martindale - Deck of cards
TTITLE3=Johnny Paycheck - A good year for the roses
TTITLE4=Porter Wagoner - Green green grass of home
TTITLE5=Johnny Paycheck - Take this job and show it
TTITLE6=Narvel Felts - Funny how times slips away
TTITLE7=Ned Miller - From a Jack to a King
TTITLE8=George Hamilton IV - Abilene
TTITLE9=Johnny Russell - King of the road
TTITLE10=Wanda Jackson - Crazy
TTITLE11=Faron Young - Four in the morning
TTITLE12=Charlie Rich - Behind closed doors
TTITLE13=Ray Price - Make the world go away
TTITLE14=The Gutlin Brothers - Amazing grace
TTITLE15=Jack Greene - There goes my everything
TTITLE16=Jimmy Dean - Big bad John
TTITLE17=Ray Price - For the good times
TTITLE18=Johnny Russell - Act naturally
TTITLE19=Freddy Fender - Before the next teardrops fall
EXTD=ID3G: 2
EXTT0=
EXTT1=
EXTT2=
EXTT3=
EXTT4=
EXTT5=
EXTT6=
EXTT7=
EXTT8=
EXTT9=
EXTT10=
EXTT11=
EXTT12=
EXTT13=
EXTT14=
EXTT15=
EXTT16=
EXTT17=
EXTT18=
EXTT19=
PLAYORDER=
